<svg width="305" height="50" viewBox="0 0 305 50" fill="none" xmlns="http://www.w3.org/2000/svg">
<path d="M25 0C23.3378 0 21.8241 0.853515 18.7966 2.56055L8.20335 8.5336C5.1759 10.2407 3.66218 11.0941 2.83109 12.5C2 13.9059 2 15.6129 2 19.027V30.973C2 32.6745 3.72526 33.7308 5.2791 33.0373C9.82 31.0109 14.4516 29.1529 19.1649 27.4699C19.5074 27.4039 19.8626 27.452 20.1739 27.6064C20.4852 27.7608 20.7345 28.0127 20.8822 28.3219C21.0298 28.631 21.0673 28.9796 20.9886 29.312C20.9099 29.6444 20.7196 29.9415 20.448 30.1559C16.2039 32.6614 12.0681 35.322 8.0485 38.13C6.84135 38.9734 6.92065 40.7431 8.20335 41.4664L18.7966 47.4394C21.8241 49.1465 23.3378 50 25 50C26.6622 50 28.1759 49.1465 31.2034 47.4394L41.7966 41.4664C44.8241 39.7593 46.3378 38.9058 47.1689 37.5C48 36.0942 48 34.3871 48 30.973V19.027C48 15.6129 48 13.9059 47.1689 12.5C46.3378 11.0941 44.8241 10.2407 41.7966 8.5336L31.2034 2.56055C28.1759 0.853515 26.6622 0 25 0Z" fill="#0065F5"/>
<path d="M33.3795 12.1485C34.0389 10.4067 34.3685 9.53581 34.9461 9.50161C34.982 9.49946 35.018 9.49946 35.0539 9.50161C35.6315 9.53581 35.9611 10.4067 36.6205 12.1485L37.4604 14.367C37.5924 14.7156 37.6584 14.8899 37.7862 15.0195C37.795 15.0284 37.8041 15.0372 37.8133 15.0458C37.9468 15.1699 38.1264 15.2339 38.4855 15.362L40.7713 16.1771C42.5659 16.8171 43.4631 17.1371 43.4983 17.6977C43.5005 17.7325 43.5005 17.7675 43.4983 17.8024C43.4631 18.3629 42.5659 18.6829 40.7713 19.3229L38.4855 20.1381C38.1264 20.2661 37.9468 20.3302 37.8133 20.4543C37.8041 20.4628 37.795 20.4716 37.7862 20.4806C37.6584 20.6102 37.5924 20.7844 37.4604 21.133L36.6205 23.3516C35.9611 25.0933 35.6315 25.9642 35.0539 25.9984C35.018 26.0006 34.982 26.0006 34.9461 25.9984C34.3685 25.9642 34.0389 25.0933 33.3795 23.3516L32.5396 21.133C32.4077 20.7844 32.3416 20.6102 32.2138 20.4806C32.205 20.4716 32.1959 20.4628 32.1867 20.4543C32.0532 20.3302 31.8736 20.2661 31.5145 20.1381L29.2288 19.3229C27.4342 18.6829 26.5369 18.3629 26.5016 17.8024C26.4995 17.7675 26.4995 17.7325 26.5016 17.6977C26.5369 17.1371 27.4342 16.8171 29.2288 16.1771L31.5145 15.362C31.8736 15.2339 32.0532 15.1699 32.1867 15.0458C32.1959 15.0372 32.205 15.0284 32.2138 15.0195C32.3416 14.8899 32.4077 14.7156 32.5396 14.367L33.3795 12.1485Z" fill="white"/>
<path d="M66.4375 42.4999C66.196 42.4999 66 42.304 66 42.0624V14.2786C66 14.037 66.196 13.8411 66.4375 13.8411H70.76C71.0015 13.8411 71.1975 14.037 71.1975 14.2786V16.3117H71.9515C72.427 15.5156 73.167 14.8156 74.173 14.2117C75.179 13.5803 76.618 13.2646 78.4905 13.2646C80.167 13.2646 81.7175 13.6764 83.1425 14.4999C84.568 15.296 85.7135 16.4764 86.5795 18.0411C87.446 19.6058 87.879 21.4999 87.879 23.7235V24.3823C87.879 26.6058 87.446 28.4999 86.5795 30.0646C85.7135 31.6293 84.568 32.8235 83.1425 33.647C81.7175 34.4431 80.167 34.8412 78.4905 34.8412C77.233 34.8412 76.171 34.6901 75.305 34.3882C74.4665 34.1137 73.782 33.7568 73.251 33.3176C72.748 32.8509 72.343 32.3842 72.0355 31.9176H71.281V42.0624C71.281 42.304 71.0855 42.4999 70.8435 42.4999H66.4375ZM76.8975 30.3117C78.546 30.3117 79.9015 29.8038 80.963 28.7882C82.053 27.745 82.598 26.2352 82.598 24.2587V23.847C82.598 21.8705 82.053 20.3744 80.963 19.3587C79.8735 18.3156 78.518 17.794 76.8975 17.794C75.277 17.794 73.9215 18.3156 72.832 19.3587C71.742 20.3744 71.1975 21.8705 71.1975 23.847V24.2587C71.1975 26.2352 71.742 27.745 72.832 28.7882C73.9215 29.8038 75.277 30.3117 76.8975 30.3117Z" fill="white"/>
<path d="M99.1827 34.8412C97.7017 34.8412 96.3742 34.594 95.2007 34.0999C94.0272 33.5784 93.0912 32.8372 92.3927 31.8764C91.7217 30.8882 91.3867 29.694 91.3867 28.294C91.3867 26.894 91.7217 25.7274 92.3927 24.794C93.0912 23.8333 94.0412 23.1195 95.2427 22.6529C96.4722 22.1587 97.8692 21.9117 99.4342 21.9117H105.134V20.7588C105.134 19.798 104.827 19.0156 104.212 18.4117C103.598 17.7803 102.62 17.4646 101.278 17.4646C99.9652 17.4646 98.9872 17.7666 98.3442 18.3705C97.8142 18.8461 97.4362 19.443 97.2102 20.1614C97.1317 20.4105 96.8697 20.5635 96.6217 20.4816L92.6372 19.1655C92.4087 19.0901 92.2832 18.8444 92.3687 18.6198C92.7042 17.7369 93.1872 16.9264 93.8177 16.1882C94.5722 15.3097 95.5642 14.6097 96.7937 14.0882C98.0507 13.5391 99.5737 13.2646 101.362 13.2646C104.1 13.2646 106.266 13.9372 107.859 15.2823C109.451 16.6274 110.248 18.5764 110.248 21.1293V28.747C110.248 29.5705 110.639 29.9823 111.421 29.9823H112.66C112.902 29.9823 113.098 30.1782 113.098 30.4198V33.8272C113.098 34.0688 112.902 34.2647 112.66 34.2647H109.577C108.543 34.2647 107.691 34.0176 107.02 33.5235C106.35 33.0293 106.015 32.3705 106.015 31.547V31.5058H105.218C105.106 31.8352 104.855 32.2745 104.464 32.8235C104.073 33.345 103.458 33.8117 102.62 34.2235C101.781 34.6352 100.636 34.8412 99.1827 34.8412ZM100.105 30.6411C101.586 30.6411 102.787 30.2431 103.709 29.447C104.659 28.6235 105.134 27.5391 105.134 26.194V25.7823H99.8112C98.8332 25.7823 98.0647 25.9882 97.5062 26.3999C96.9472 26.8117 96.6677 27.3882 96.6677 28.1293C96.6677 28.8705 96.9612 29.4744 97.5477 29.9411C98.1347 30.4078 98.9872 30.6411 100.105 30.6411Z" fill="white"/>
<path d="M119.087 42.5006C118.845 42.5006 118.65 42.3047 118.65 42.0631V38.4087C118.65 38.167 118.845 37.9712 119.087 37.9712H129.966C130.749 37.9712 131.14 37.5594 131.14 36.7359V31.5888H130.385C130.162 32.0555 129.813 32.5221 129.338 32.9888C128.863 33.4555 128.22 33.8398 127.41 34.1418C126.599 34.4437 125.565 34.5947 124.308 34.5947C122.687 34.5947 121.262 34.2378 120.033 33.5241C118.831 32.7829 117.895 31.7672 117.224 30.477C116.554 29.1869 116.219 27.7045 116.219 26.03V14.2793C116.219 14.0376 116.414 13.8418 116.656 13.8418H121.062C121.304 13.8418 121.5 14.0376 121.5 14.2793V25.6182C121.5 27.1555 121.877 28.3084 122.631 29.077C123.414 29.8457 124.517 30.23 125.943 30.23C127.563 30.23 128.821 29.7084 129.715 28.6653C130.609 27.5947 131.056 26.1123 131.056 24.2182V14.2793C131.056 14.0376 131.252 13.8418 131.494 13.8418H135.9C136.141 13.8418 136.337 14.0376 136.337 14.2793V37.8888C136.337 39.2888 135.918 40.4006 135.08 41.2241C134.241 42.0751 133.124 42.5006 131.727 42.5006H119.087Z" fill="white"/>
<path d="M151.979 34.8412C149.967 34.8412 148.137 34.4293 146.489 33.6058C144.868 32.7823 143.583 31.5882 142.633 30.0235C141.682 28.4587 141.207 26.5646 141.207 24.3411V23.7646C141.207 21.5411 141.682 19.647 142.633 18.0823C143.583 16.5176 144.868 15.3235 146.489 14.4999C148.137 13.6764 149.967 13.2646 151.979 13.2646C153.963 13.2646 155.668 13.6078 157.093 14.294C158.518 14.9803 159.663 15.9274 160.53 17.1352C161.34 18.2054 161.898 19.411 162.204 20.752C162.257 20.9837 162.104 21.2094 161.872 21.2581L157.637 22.1448C157.388 22.1968 157.149 22.0266 157.097 21.778C156.964 21.1373 156.739 20.5505 156.422 20.0176C156.031 19.3587 155.472 18.8372 154.746 18.4529C154.047 18.0686 153.167 17.8764 152.105 17.8764C151.043 17.8764 150.079 18.1097 149.213 18.5764C148.375 19.0156 147.704 19.6882 147.201 20.594C146.726 21.4725 146.489 22.5568 146.489 23.847V24.2587C146.489 25.5489 146.726 26.647 147.201 27.5529C147.704 28.4313 148.375 29.1039 149.213 29.5705C150.079 30.0097 151.043 30.2293 152.105 30.2293C153.698 30.2293 154.899 29.8313 155.71 29.0352C156.449 28.3089 156.949 27.3903 157.21 26.2795C157.268 26.034 157.51 25.8719 157.755 25.9292L161.983 26.9166C162.221 26.9721 162.368 27.2119 162.3 27.4464C161.925 28.7351 161.335 29.9235 160.53 31.0117C159.663 32.1921 158.518 33.1254 157.093 33.8117C155.668 34.498 153.963 34.8412 151.979 34.8412Z" fill="white"/>
<path d="M167.211 34.2647C166.969 34.2647 166.773 34.0688 166.773 33.8272V14.2787C166.773 14.037 166.969 13.8412 167.211 13.8412H171.533C171.775 13.8412 171.971 14.037 171.971 14.2787V16.147H172.725C173.032 15.3235 173.535 14.7196 174.234 14.3353C174.96 13.951 175.799 13.7588 176.749 13.7588H178.826C179.068 13.7588 179.263 13.9547 179.263 14.1963V17.9331C179.263 18.1747 179.068 18.3706 178.826 18.3706H176.665C175.324 18.3706 174.22 18.7274 173.354 19.4412C172.487 20.1274 172.054 21.198 172.054 22.6529V33.8272C172.054 34.0688 171.858 34.2647 171.617 34.2647H167.211Z" fill="white"/>
<path d="M192.127 34.8412C190.059 34.8412 188.229 34.4156 186.636 33.5646C185.071 32.6862 183.842 31.4646 182.947 29.8999C182.081 28.3078 181.648 26.4411 181.648 24.2999V23.8058C181.648 21.6646 182.081 19.8117 182.947 18.247C183.814 16.6548 185.029 15.4333 186.594 14.5823C188.159 13.7038 189.975 13.2646 192.043 13.2646C194.083 13.2646 195.857 13.7176 197.366 14.6235C198.875 15.5019 200.048 16.7372 200.887 18.3293C201.725 19.894 202.144 21.7195 202.144 23.8058V25.1389C202.144 25.3805 201.948 25.5764 201.706 25.5764H187.013C187.069 26.9764 187.6 28.1156 188.606 28.994C189.612 29.8725 190.841 30.3117 192.294 30.3117C193.775 30.3117 194.865 29.996 195.563 29.3646C196.138 28.845 196.6 28.2789 196.948 27.6663C197.07 27.4511 197.339 27.3586 197.559 27.4719L201.074 29.2826C201.293 29.3953 201.376 29.6665 201.247 29.8758C200.872 30.4826 200.375 31.1357 199.755 31.8352C199.028 32.6588 198.05 33.3725 196.821 33.9764C195.591 34.5529 194.027 34.8412 192.127 34.8412ZM187.055 21.7058H196.779C196.667 20.5254 196.178 19.5784 195.312 18.8646C194.474 18.1509 193.37 17.794 192.001 17.794C190.576 17.794 189.444 18.1509 188.606 18.8646C187.768 19.5784 187.251 20.5254 187.055 21.7058Z" fill="white"/>
<path d="M215.479 34.8412C212.769 34.8412 210.547 34.2647 208.815 33.1117C207.191 32.031 206.168 30.5159 205.748 28.5667C205.7 28.3439 205.842 28.1273 206.062 28.0711L210.089 27.0482C210.331 26.9867 210.574 27.1407 210.637 27.3823C210.835 28.1332 211.122 28.7391 211.497 29.1999C211.972 29.7489 212.545 30.147 213.216 30.394C213.914 30.6137 214.669 30.7235 215.479 30.7235C216.709 30.7235 217.617 30.5176 218.204 30.1058C218.79 29.6666 219.084 29.1313 219.084 28.4999C219.084 27.8686 218.804 27.3882 218.246 27.0587C217.687 26.7019 216.793 26.4137 215.563 26.194L214.389 25.9882C212.936 25.7137 211.609 25.3431 210.408 24.8764C209.206 24.3823 208.242 23.7097 207.516 22.8587C206.789 22.0078 206.426 20.9097 206.426 19.5646C206.426 17.5333 207.18 15.9823 208.689 14.9117C210.198 13.8137 212.182 13.2646 214.641 13.2646C216.96 13.2646 218.888 13.7725 220.425 14.7882C221.832 15.7179 222.794 16.9122 223.311 18.371C223.391 18.5967 223.259 18.838 223.029 18.9073L218.994 20.1272C218.749 20.2012 218.495 20.0492 218.419 19.805C218.168 19.0008 217.747 18.4128 217.156 18.0411C216.485 17.6019 215.647 17.3823 214.641 17.3823C213.635 17.3823 212.867 17.5607 212.336 17.9176C211.805 18.247 211.539 18.7137 211.539 19.3176C211.539 19.9764 211.819 20.4705 212.378 20.7999C212.936 21.1019 213.691 21.3352 214.641 21.4999L215.815 21.7058C217.379 21.9803 218.79 22.3509 220.048 22.8176C221.333 23.2568 222.339 23.9019 223.066 24.7529C223.82 25.5764 224.197 26.7019 224.197 28.1293C224.197 30.2705 223.401 31.9313 221.808 33.1117C220.243 34.2647 218.134 34.8412 215.479 34.8412Z" fill="white"/>
<path d="M236.378 34.2647C235.009 34.2647 233.891 33.8529 233.025 33.0294C232.187 32.1784 231.767 31.0529 231.767 29.653V18.1236H227.008C226.766 18.1236 226.57 17.9277 226.57 17.6861V14.2787C226.57 14.037 226.766 13.8412 227.008 13.8412H231.767V7.9375C231.767 7.6959 231.963 7.5 232.205 7.5H236.611C236.853 7.5 237.049 7.6959 237.049 7.9375V13.8412H242.311C242.553 13.8412 242.749 14.037 242.749 14.2787V17.6861C242.749 17.9277 242.553 18.1236 242.311 18.1236H237.049V28.747C237.049 29.5706 237.44 29.9823 238.222 29.9823H241.808C242.05 29.9823 242.246 30.1782 242.246 30.4198V33.8272C242.246 34.0689 242.05 34.2647 241.808 34.2647H236.378Z" fill="white"/>
<path d="M259 15C259 8.37258 264.373 3 271 3H293C299.627 3 305 8.37258 305 15C305 21.6274 299.627 27 293 27H271C264.373 27 259 21.6274 259 15Z" fill="white" fill-opacity="0.1"/>
<path d="M270.057 19V10.2727H273.108C273.716 10.2727 274.217 10.3778 274.612 10.5881C275.007 10.7955 275.301 11.0753 275.494 11.4276C275.688 11.777 275.784 12.1648 275.784 12.5909C275.784 12.9659 275.717 13.2756 275.584 13.5199C275.453 13.7642 275.28 13.9574 275.064 14.0994C274.851 14.2415 274.619 14.3466 274.369 14.4148V14.5C274.636 14.517 274.905 14.6108 275.175 14.7812C275.445 14.9517 275.67 15.196 275.852 15.5142C276.034 15.8324 276.125 16.2216 276.125 16.6818C276.125 17.1193 276.026 17.5128 275.827 17.8622C275.628 18.2116 275.314 18.4886 274.885 18.6932C274.456 18.8977 273.898 19 273.21 19H270.057ZM271.114 18.0625H273.21C273.901 18.0625 274.391 17.929 274.68 17.6619C274.973 17.392 275.119 17.0653 275.119 16.6818C275.119 16.3864 275.044 16.1136 274.893 15.8636C274.743 15.6108 274.528 15.4091 274.25 15.2585C273.972 15.1051 273.642 15.0284 273.261 15.0284H271.114V18.0625ZM271.114 14.108H273.074C273.392 14.108 273.679 14.0455 273.935 13.9205C274.193 13.7955 274.398 13.6193 274.548 13.392C274.702 13.1648 274.778 12.8977 274.778 12.5909C274.778 12.2074 274.645 11.8821 274.378 11.6151C274.111 11.3452 273.688 11.2102 273.108 11.2102H271.114V14.108ZM280.469 19.1364C279.839 19.1364 279.295 18.9972 278.837 18.7188C278.383 18.4375 278.032 18.0455 277.785 17.5426C277.54 17.0369 277.418 16.4489 277.418 15.7784C277.418 15.108 277.54 14.517 277.785 14.0057C278.032 13.4915 278.376 13.0909 278.816 12.804C279.259 12.5142 279.776 12.3693 280.367 12.3693C280.708 12.3693 281.045 12.4261 281.377 12.5398C281.71 12.6534 282.012 12.8381 282.285 13.0938C282.558 13.3466 282.775 13.6818 282.937 14.0994C283.099 14.517 283.18 15.0312 283.18 15.642V16.0682H278.134V15.1989H282.157C282.157 14.8295 282.083 14.5 281.935 14.2102C281.79 13.9205 281.583 13.6918 281.313 13.5241C281.046 13.3565 280.731 13.2727 280.367 13.2727C279.967 13.2727 279.62 13.3722 279.327 13.571C279.038 13.767 278.815 14.0227 278.658 14.3381C278.502 14.6534 278.424 14.9915 278.424 15.3523V15.9318C278.424 16.4261 278.509 16.8452 278.68 17.1889C278.853 17.5298 279.093 17.7898 279.4 17.9688C279.707 18.1449 280.063 18.233 280.469 18.233C280.734 18.233 280.972 18.196 281.185 18.1222C281.401 18.0455 281.587 17.9318 281.744 17.7812C281.9 17.6278 282.021 17.4375 282.106 17.2102L283.077 17.483C282.975 17.8125 282.803 18.1023 282.562 18.3523C282.32 18.5994 282.022 18.7926 281.667 18.9318C281.312 19.0682 280.913 19.1364 280.469 19.1364ZM287.556 12.4545V13.3068H284.164V12.4545H287.556ZM285.153 10.8864H286.158V17.125C286.158 17.4091 286.2 17.6222 286.282 17.7642C286.367 17.9034 286.475 17.9972 286.606 18.0455C286.739 18.0909 286.88 18.1136 287.028 18.1136C287.138 18.1136 287.229 18.108 287.3 18.0966C287.371 18.0824 287.428 18.071 287.471 18.0625L287.675 18.9659C287.607 18.9915 287.512 19.017 287.39 19.0426C287.268 19.071 287.113 19.0852 286.925 19.0852C286.641 19.0852 286.363 19.0241 286.09 18.902C285.82 18.7798 285.596 18.5938 285.417 18.3438C285.241 18.0938 285.153 17.7784 285.153 17.3977V10.8864ZM290.995 19.1534C290.58 19.1534 290.204 19.0753 289.866 18.919C289.528 18.7599 289.259 18.5312 289.06 18.233C288.862 17.9318 288.762 17.5682 288.762 17.142C288.762 16.767 288.836 16.4631 288.984 16.2301C289.131 15.9943 289.329 15.8097 289.576 15.6761C289.823 15.5426 290.096 15.4432 290.394 15.3778C290.695 15.3097 290.998 15.2557 291.302 15.2159C291.7 15.1648 292.022 15.1264 292.269 15.1009C292.519 15.0724 292.701 15.0256 292.815 14.9602C292.931 14.8949 292.989 14.7812 292.989 14.6193V14.5852C292.989 14.1648 292.874 13.8381 292.644 13.6051C292.417 13.3722 292.072 13.2557 291.609 13.2557C291.129 13.2557 290.752 13.3608 290.479 13.571C290.207 13.7812 290.015 14.0057 289.904 14.2443L288.95 13.9034C289.12 13.5057 289.347 13.196 289.631 12.9744C289.918 12.75 290.231 12.5937 290.569 12.5057C290.91 12.4148 291.245 12.3693 291.575 12.3693C291.785 12.3693 292.026 12.3949 292.299 12.446C292.575 12.4943 292.84 12.5952 293.096 12.7486C293.354 12.902 293.569 13.1335 293.739 13.4432C293.91 13.7528 293.995 14.1676 293.995 14.6875V19H292.989V18.1136H292.938C292.87 18.2557 292.756 18.4077 292.597 18.5696C292.438 18.7315 292.227 18.8693 291.962 18.983C291.698 19.0966 291.376 19.1534 290.995 19.1534ZM291.148 18.25C291.546 18.25 291.881 18.1719 292.154 18.0156C292.43 17.8594 292.637 17.6577 292.776 17.4105C292.918 17.1634 292.989 16.9034 292.989 16.6307V15.7102C292.947 15.7614 292.853 15.8082 292.708 15.8509C292.566 15.8906 292.401 15.9261 292.214 15.9574C292.029 15.9858 291.849 16.0114 291.673 16.0341C291.499 16.054 291.359 16.071 291.251 16.0852C290.989 16.1193 290.745 16.1747 290.518 16.2514C290.293 16.3253 290.112 16.4375 289.972 16.5881C289.836 16.7358 289.768 16.9375 289.768 17.1932C289.768 17.5426 289.897 17.8068 290.156 17.9858C290.417 18.1619 290.748 18.25 291.148 18.25Z" fill="#3384F7"/>
</svg>
