<svg width="204" height="36" viewBox="0 0 204 36" fill="none" xmlns="http://www.w3.org/2000/svg">
<path d="M18.5005 0C17.2705 0 16.1503 0.614532 13.91 1.8436L6.07095 6.1442C3.83064 7.37326 2.71048 7.98779 2.09548 9C1.48047 10.0122 1.48047 11.2413 1.48047 13.6994V22.3006C1.48047 23.5327 2.72329 24.3014 3.85327 23.8102C7.23075 22.3421 10.6761 20.9965 14.1825 19.7783C14.436 19.7309 14.6988 19.7655 14.9292 19.8766C15.1595 19.9878 15.344 20.1692 15.4533 20.3918C15.5625 20.6143 15.5903 20.8653 15.532 21.1046C15.4738 21.3439 15.3329 21.5579 15.132 21.7122C11.9929 23.5154 8.93381 25.43 5.96065 27.4507C5.07636 28.0517 5.13355 29.3415 6.07095 29.8558L13.91 34.1564C16.1503 35.3855 17.2705 36 18.5005 36C19.7305 36 20.8506 35.3855 23.091 34.1564L30.93 29.8558C33.1703 28.6267 34.2905 28.0122 34.9055 27C35.5205 25.9878 35.5205 24.7587 35.5205 22.3006V13.6994C35.5205 11.2413 35.5205 10.0122 34.9055 9C34.2905 7.98779 33.1703 7.37326 30.93 6.1442L23.091 1.8436C20.8506 0.614532 19.7305 0 18.5005 0Z" fill="#0065F5"/>
<path d="M24.7002 8.74674C25.1881 7.49266 25.4321 6.86562 25.8595 6.84099C25.8861 6.83946 25.9127 6.83946 25.9393 6.84099C26.3667 6.86562 26.6106 7.49266 27.0986 8.74674L27.7201 10.3441C27.8177 10.5951 27.8665 10.7206 27.9611 10.8138C27.9677 10.8203 27.9744 10.8266 27.9812 10.8328C28.08 10.9221 28.2129 10.9682 28.4787 11.0605L30.1701 11.6474C31.4981 12.1082 32.1621 12.3385 32.1882 12.7422C32.1898 12.7673 32.1898 12.7924 32.1882 12.8175C32.1621 13.2211 31.4981 13.4515 30.1701 13.9123L28.4787 14.4992C28.2129 14.5914 28.08 14.6376 27.9812 14.7269C27.9744 14.7331 27.9677 14.7394 27.9611 14.7458C27.8665 14.8391 27.8177 14.9646 27.7201 15.2156L27.0986 16.8129C26.6106 18.067 26.3667 18.6941 25.9393 18.7187C25.9127 18.7202 25.8861 18.7202 25.8595 18.7187C25.4321 18.6941 25.1881 18.067 24.7002 16.8129L24.0787 15.2156C23.981 14.9646 23.9322 14.8391 23.8376 14.7458C23.8311 14.7394 23.8244 14.7331 23.8175 14.7269C23.7187 14.6376 23.5859 14.5914 23.3201 14.4992L21.6286 13.9123C20.3007 13.4515 19.6367 13.2211 19.6106 12.8175C19.609 12.7924 19.609 12.7673 19.6106 12.7422C19.6367 12.3385 20.3007 12.1082 21.6286 11.6474L23.3201 11.0605C23.5859 10.9682 23.7187 10.9221 23.8175 10.8328C23.8244 10.8266 23.8311 10.8203 23.8376 10.8138C23.9322 10.7206 23.981 10.5951 24.0787 10.3441L24.7002 8.74674Z" fill="white"/>
<path d="M47.3886 32C47.174 32 47 31.8433 47 31.65V9.42294C47 9.22964 47.174 9.07294 47.3886 9.07294H51.2279C51.4426 9.07294 51.6166 9.22964 51.6166 9.42294V11.0494H52.2867C52.7086 10.4125 53.3664 9.85255 54.2599 9.36941C55.1534 8.86431 56.4317 8.61176 58.0946 8.61176C59.5838 8.61176 60.9613 8.94118 62.2272 9.6C63.493 10.2369 64.5106 11.1812 65.2801 12.4329C66.0495 13.6847 66.4342 15.2 66.4342 16.9788V17.5059C66.4342 19.2847 66.0495 20.8 65.2801 22.0518C64.5106 23.3035 63.493 24.2588 62.2272 24.9177C60.9613 25.5545 59.5838 25.8729 58.0946 25.8729C56.9777 25.8729 56.0345 25.7522 55.2651 25.5106C54.5205 25.291 53.9124 25.0055 53.4408 24.6541C52.9941 24.2808 52.6342 23.9075 52.3612 23.5341H51.691V31.65C51.691 31.8433 51.517 32 51.3024 32H47.3886ZM56.6799 22.2494C58.1443 22.2494 59.348 21.8431 60.2912 21.0306C61.2592 20.1961 61.7432 18.9882 61.7432 17.4071V17.0776C61.7432 15.4965 61.2592 14.2996 60.2912 13.4871C59.3232 12.6525 58.1194 12.2353 56.6799 12.2353C55.2403 12.2353 54.0365 12.6525 53.0685 13.4871C52.1005 14.2996 51.6166 15.4965 51.6166 17.0776V17.4071C51.6166 18.9882 52.1005 20.1961 53.0685 21.0306C54.0365 21.8431 55.2403 22.2494 56.6799 22.2494Z" fill="white"/>
<path d="M76.475 25.8729C75.1596 25.8729 73.9806 25.6753 72.9381 25.28C71.8957 24.8627 71.0642 24.2698 70.4437 23.5012C69.848 22.7106 69.5502 21.7553 69.5502 20.6353C69.5502 19.5153 69.848 18.582 70.4437 17.8353C71.0642 17.0667 71.9081 16.4957 72.9754 16.1224C74.0675 15.7271 75.3085 15.5294 76.6984 15.5294H81.7617V14.6071C81.7617 13.8384 81.4887 13.2126 80.9427 12.7294C80.3966 12.2243 79.5279 11.9718 78.3365 11.9718C77.17 11.9718 76.3013 12.2133 75.7304 12.6965C75.2595 13.0769 74.9237 13.5545 74.723 14.1292C74.6535 14.3284 74.4207 14.4509 74.2005 14.3854L70.6609 13.3324C70.4582 13.2721 70.3464 13.0755 70.4223 12.8959C70.7206 12.1896 71.1497 11.5412 71.7096 10.9506C72.3797 10.2478 73.2608 9.68784 74.3529 9.27059C75.4698 8.83137 76.8225 8.61176 78.411 8.61176C80.8434 8.61176 82.7669 9.1498 84.1817 10.2259C85.5964 11.302 86.3038 12.8612 86.3038 14.9035V20.9976C86.3038 21.6565 86.6513 21.9859 87.3463 21.9859H88.4469C88.6615 21.9859 88.8355 22.1426 88.8355 22.3359V25.0618C88.8355 25.2551 88.6615 25.4118 88.4469 25.4118H85.7081C84.7898 25.4118 84.0328 25.2141 83.4371 24.8188C82.8414 24.4235 82.5436 23.8965 82.5436 23.2376V23.2047H81.8362C81.7369 23.4682 81.5135 23.8196 81.166 24.2588C80.8186 24.6761 80.2725 25.0494 79.5279 25.3788C78.7833 25.7082 77.7657 25.8729 76.475 25.8729ZM77.2941 22.5129C78.6096 22.5129 79.6768 22.1945 80.4959 21.5576C81.3398 20.8988 81.7617 20.0314 81.7617 18.9553V18.6259H77.0335C76.1648 18.6259 75.4822 18.7906 74.9858 19.12C74.4894 19.4494 74.2412 19.9106 74.2412 20.5035C74.2412 21.0965 74.5018 21.5796 75.023 21.9529C75.5443 22.3263 76.3013 22.5129 77.2941 22.5129Z" fill="white"/>
<path d="M94.1553 32C93.9407 32 93.7667 31.8433 93.7667 31.65V28.7265C93.7667 28.5332 93.9407 28.3765 94.1553 28.3765H103.819C104.514 28.3765 104.861 28.0471 104.861 27.3882V23.2706H104.191C103.993 23.6439 103.682 24.0173 103.26 24.3906C102.839 24.7639 102.268 25.0714 101.548 25.3129C100.828 25.5545 99.9097 25.6753 98.7928 25.6753C97.3532 25.6753 96.0874 25.3898 94.9953 24.8188C93.9281 24.2259 93.0966 23.4133 92.5009 22.3812C91.9052 21.349 91.6074 20.1631 91.6074 18.8235V9.42294C91.6074 9.22964 91.7814 9.07294 91.996 9.07294H95.9098C96.1244 9.07294 96.2984 9.22964 96.2984 9.42294V18.4941C96.2984 19.7239 96.6335 20.6463 97.3036 21.2612C97.9986 21.8761 98.979 22.1835 100.245 22.1835C101.684 22.1835 102.801 21.7663 103.596 20.9318C104.39 20.0753 104.787 18.8894 104.787 17.3741V9.42294C104.787 9.22964 104.961 9.07294 105.176 9.07294H109.089C109.304 9.07294 109.478 9.22964 109.478 9.42294V28.3106C109.478 29.4306 109.106 30.32 108.361 30.9788C107.616 31.6596 106.624 32 105.383 32H94.1553Z" fill="white"/>
<path d="M123.373 25.8729C121.586 25.8729 119.96 25.5435 118.495 24.8847C117.056 24.2259 115.914 23.2706 115.07 22.0188C114.226 20.7671 113.804 19.2518 113.804 17.4729V17.0118C113.804 15.2329 114.226 13.7176 115.07 12.4659C115.914 11.2141 117.056 10.2588 118.495 9.6C119.96 8.94118 121.586 8.61176 123.373 8.61176C125.135 8.61176 126.649 8.88627 127.915 9.4353C129.181 9.98431 130.198 10.742 130.968 11.7082C131.688 12.5644 132.183 13.5289 132.455 14.6016C132.501 14.787 132.366 14.9676 132.16 15.0065L128.398 15.7159C128.177 15.7575 127.965 15.6213 127.919 15.4224C127.8 14.9099 127.6 14.4405 127.319 14.0141C126.972 13.4871 126.475 13.0698 125.83 12.7624C125.209 12.4549 124.428 12.3012 123.484 12.3012C122.541 12.3012 121.685 12.4878 120.915 12.8612C120.171 13.2126 119.575 13.7506 119.128 14.4753C118.706 15.178 118.495 16.0455 118.495 17.0776V17.4071C118.495 18.4392 118.706 19.3176 119.128 20.0424C119.575 20.7451 120.171 21.2831 120.915 21.6565C121.685 22.0078 122.541 22.1835 123.484 22.1835C124.899 22.1835 125.966 21.8651 126.686 21.2282C127.343 20.6471 127.787 19.9123 128.019 19.0237C128.07 18.8273 128.285 18.6976 128.503 18.7435L132.259 19.5333C132.47 19.5777 132.601 19.7696 132.54 19.9572C132.207 20.9881 131.683 21.9389 130.968 22.8094C130.198 23.7537 129.181 24.5004 127.915 25.0494C126.649 25.5984 125.135 25.8729 123.373 25.8729Z" fill="white"/>
<path d="M136.901 25.4118C136.687 25.4118 136.513 25.2551 136.513 25.0618V9.42294C136.513 9.22964 136.687 9.07294 136.901 9.07294H140.741C140.955 9.07294 141.129 9.22964 141.129 9.42294V10.9176H141.799C142.072 10.2588 142.519 9.77569 143.14 9.46824C143.785 9.16078 144.53 9.00706 145.373 9.00706H147.219C147.433 9.00706 147.607 9.16376 147.607 9.35706V12.3465C147.607 12.5398 147.433 12.6965 147.219 12.6965H145.299C144.108 12.6965 143.127 12.982 142.358 13.5529C141.588 14.102 141.204 14.9584 141.204 16.1224V25.0618C141.204 25.2551 141.03 25.4118 140.815 25.4118H136.901Z" fill="white"/>
<path d="M159.033 25.8729C157.197 25.8729 155.571 25.5326 154.156 24.8518C152.766 24.149 151.674 23.1718 150.88 21.92C150.111 20.6463 149.726 19.1529 149.726 17.44V17.0447C149.726 15.3318 150.111 13.8494 150.88 12.5976C151.649 11.3239 152.729 10.3467 154.119 9.66588C155.509 8.96314 157.122 8.61176 158.959 8.61176C160.771 8.61176 162.347 8.97412 163.687 9.69882C165.027 10.4016 166.07 11.3898 166.815 12.6635C167.559 13.9153 167.931 15.3757 167.931 17.0447V18.1112C167.931 18.3045 167.757 18.4612 167.543 18.4612H154.491C154.541 19.5812 155.013 20.4925 155.906 21.1953C156.8 21.898 157.892 22.2494 159.182 22.2494C160.498 22.2494 161.466 21.9969 162.086 21.4918C162.597 21.0761 163.007 20.6232 163.316 20.1331C163.424 19.9609 163.663 19.8869 163.859 19.9776L166.981 21.4261C167.176 21.5163 167.25 21.7332 167.135 21.9007C166.802 22.3861 166.36 22.9086 165.809 23.4682C165.164 24.1271 164.295 24.698 163.203 25.1812C162.111 25.6424 160.721 25.8729 159.033 25.8729ZM154.529 15.3647H163.166C163.067 14.4204 162.632 13.6627 161.863 13.0918C161.118 12.5208 160.138 12.2353 158.922 12.2353C157.656 12.2353 156.651 12.5208 155.906 13.0918C155.161 13.6627 154.702 14.4204 154.529 15.3647Z" fill="white"/>
<path d="M179.776 25.8729C177.369 25.8729 175.395 25.4118 173.857 24.4894C172.414 23.6248 171.506 22.4128 171.132 20.8535C171.089 20.6752 171.215 20.5019 171.412 20.457L174.988 19.6387C175.203 19.5894 175.419 19.7126 175.475 19.9059C175.651 20.5066 175.906 20.9913 176.239 21.36C176.661 21.7992 177.17 22.1176 177.766 22.3153C178.386 22.491 179.056 22.5788 179.776 22.5788C180.868 22.5788 181.675 22.4141 182.196 22.0847C182.717 21.7333 182.978 21.3051 182.978 20.8C182.978 20.2949 182.73 19.9106 182.233 19.6471C181.737 19.3616 180.943 19.131 179.851 18.9553L178.808 18.7906C177.518 18.571 176.339 18.2745 175.271 17.9012C174.204 17.5059 173.348 16.9678 172.702 16.2871C172.057 15.6063 171.734 14.7278 171.734 13.6518C171.734 12.0267 172.405 10.7859 173.745 9.92941C175.085 9.05098 176.847 8.61176 179.032 8.61176C181.092 8.61176 182.804 9.01804 184.169 9.83059C185.419 10.5744 186.273 11.5298 186.733 12.6968C186.804 12.8774 186.686 13.0704 186.483 13.1259L182.898 14.1018C182.68 14.161 182.455 14.0394 182.387 13.844C182.165 13.2007 181.791 12.7303 181.265 12.4329C180.67 12.0816 179.925 11.9059 179.032 11.9059C178.138 11.9059 177.456 12.0486 176.984 12.3341C176.512 12.5976 176.277 12.971 176.277 13.4541C176.277 13.9812 176.525 14.3765 177.021 14.64C177.518 14.8816 178.188 15.0682 179.032 15.2L180.074 15.3647C181.464 15.5843 182.717 15.8808 183.834 16.2541C184.976 16.6055 185.87 17.1216 186.515 17.8024C187.185 18.4612 187.52 19.3616 187.52 20.5035C187.52 22.2165 186.813 23.5451 185.398 24.4894C184.008 25.4118 182.134 25.8729 179.776 25.8729Z" fill="white"/>
<path d="M198.341 25.4118C197.125 25.4118 196.132 25.0824 195.363 24.4235C194.618 23.7427 194.246 22.8424 194.246 21.7224V12.4988H190.018C189.803 12.4988 189.629 12.3421 189.629 12.1488V9.42294C189.629 9.22964 189.803 9.07294 190.018 9.07294H194.246V4.35C194.246 4.1567 194.42 4 194.634 4H198.548C198.763 4 198.937 4.1567 198.937 4.35V9.07294H203.611C203.826 9.07294 204 9.22964 204 9.42294V12.1488C204 12.3421 203.826 12.4988 203.611 12.4988H198.937V20.9976C198.937 21.6565 199.284 21.9859 199.979 21.9859H203.165C203.379 21.9859 203.553 22.1426 203.553 22.3359V25.0618C203.553 25.2551 203.379 25.4118 203.165 25.4118H198.341Z" fill="white"/>
</svg>
