<svg width="142" height="25" viewBox="0 0 142 25" fill="none" xmlns="http://www.w3.org/2000/svg">
<path d="M11.5801 0C10.749 0 9.99213 0.426758 8.4784 1.28027L3.18175 4.2668C1.66803 5.12033 0.911171 5.54707 0.495623 6.25C0.0800781 6.95293 0.0800781 7.80643 0.0800781 9.51348V15.4865C0.0800781 16.3373 0.942708 16.8654 1.71963 16.5187C3.99008 15.5055 6.30588 14.5764 8.66253 13.7349C8.83378 13.702 9.0114 13.726 9.16703 13.8032C9.32265 13.8804 9.44733 14.0064 9.52115 14.1609C9.59498 14.3155 9.61373 14.4898 9.57438 14.656C9.53503 14.8222 9.43985 14.9707 9.30405 15.0779C7.18203 16.3307 5.11413 17.661 3.10433 19.065C2.50075 19.4867 2.5404 20.3715 3.18175 20.7332L8.4784 23.7197C9.99213 24.5732 10.749 25 11.5801 25C12.4112 25 13.168 24.5732 14.6818 23.7197L19.9784 20.7332C21.4921 19.8797 22.249 19.4529 22.6645 18.75C23.0801 18.0471 23.0801 17.1936 23.0801 15.4865V9.51348C23.0801 7.80643 23.0801 6.95293 22.6645 6.25C22.249 5.54707 21.4921 5.12033 19.9784 4.2668L14.6818 1.28027C13.168 0.426758 12.4112 0 11.5801 0Z" fill="#0065F5"/>
<path d="M15.7693 6.07472C16.099 5.20384 16.2638 4.76839 16.5526 4.75129C16.5706 4.75022 16.5886 4.75022 16.6065 4.75129C16.8953 4.76839 17.0602 5.20384 17.3899 6.07472L17.8098 7.18399C17.8758 7.35829 17.9088 7.44542 17.9727 7.51022C17.9771 7.51469 17.9816 7.51909 17.9862 7.52337C18.053 7.58542 18.1428 7.61744 18.3223 7.68147L19.4652 8.08904C20.3625 8.40904 20.8111 8.56905 20.8288 8.84932C20.8299 8.86674 20.8299 8.88422 20.8288 8.90167C20.8111 9.18194 20.3625 9.34194 19.4652 9.66194L18.3223 10.0695C18.1428 10.1335 18.053 10.1656 17.9862 10.2276C17.9816 10.2319 17.9771 10.2363 17.9727 10.2408C17.9088 10.3056 17.8758 10.3927 17.8098 10.567L17.3899 11.6763C17.0602 12.5471 16.8953 12.9826 16.6065 12.9997C16.5886 13.0008 16.5706 13.0008 16.5526 12.9997C16.2638 12.9826 16.099 12.5471 15.7693 11.6763L15.3494 10.567C15.2834 10.3927 15.2504 10.3056 15.1865 10.2408C15.1821 10.2363 15.1776 10.2319 15.1729 10.2276C15.1062 10.1656 15.0164 10.1335 14.8368 10.0695L13.694 9.66194C12.7967 9.34194 12.348 9.18194 12.3304 8.90167C12.3293 8.88422 12.3293 8.86674 12.3304 8.84932C12.348 8.56905 12.7967 8.40904 13.694 8.08904L14.8368 7.68147C15.0164 7.61744 15.1062 7.58542 15.1729 7.52337C15.1776 7.51909 15.1821 7.51469 15.1865 7.51022C15.2504 7.44542 15.2834 7.35829 15.3494 7.18399L15.7693 6.07472Z" fill="white"/>
<path d="M33.0813 23.2337C32.9332 23.2337 32.813 23.1136 32.813 22.9654V5.92465C32.813 5.77644 32.9332 5.65632 33.0813 5.65632H35.7325C35.8806 5.65632 36.0008 5.77644 36.0008 5.92465V7.17159H36.4632C36.7549 6.68335 37.2087 6.25401 37.8258 5.88359C38.4428 5.49636 39.3254 5.30273 40.4738 5.30273C41.5021 5.30273 42.4531 5.55527 43.3271 6.06039C44.2014 6.54866 44.9039 7.27261 45.4351 8.23232C45.9665 9.192 46.2321 10.3537 46.2321 11.7175V12.1216C46.2321 13.4853 45.9665 14.6471 45.4351 15.6067C44.9039 16.5664 44.2014 17.2988 43.3271 17.8039C42.4531 18.2922 41.5021 18.5363 40.4738 18.5363C39.7026 18.5363 39.0512 18.4437 38.5201 18.2585C38.0058 18.0902 37.5859 17.8713 37.2603 17.6019C36.9518 17.3157 36.7034 17.0294 36.5148 16.7432H36.052V22.9654C36.052 23.1136 35.9321 23.2337 35.7837 23.2337H33.0813ZM39.4968 15.7583C40.5079 15.7583 41.3392 15.4468 41.9903 14.8238C42.6588 14.184 42.9931 13.258 42.9931 12.0458V11.7932C42.9931 10.581 42.6588 9.66341 41.9903 9.04045C41.3221 8.40068 40.4907 8.08077 39.4968 8.08077C38.5029 8.08077 37.6715 8.40068 37.0033 9.04045C36.3347 9.66341 36.0008 10.581 36.0008 11.7932V12.0458C36.0008 13.258 36.3347 14.184 37.0033 14.8238C37.6715 15.4468 38.5029 15.7583 39.4968 15.7583Z" fill="#02061E"/>
<path d="M53.1653 18.5353C52.257 18.5353 51.4428 18.3838 50.723 18.0807C50.0033 17.7609 49.4292 17.3063 49.0008 16.717C48.5893 16.1109 48.3838 15.3785 48.3838 14.5198C48.3838 13.6611 48.5893 12.9456 49.0008 12.3731C49.4292 11.7839 50.0119 11.3461 50.7488 11.0599C51.5029 10.7568 52.3597 10.6053 53.3196 10.6053H56.8156V9.89817C56.8156 9.30888 56.627 8.82904 56.2501 8.45862C55.8732 8.07139 55.2734 7.87776 54.4506 7.87776C53.6453 7.87776 53.0454 8.06295 52.6511 8.43338C52.326 8.72505 52.0942 9.09118 51.9555 9.5318C51.9074 9.68455 51.7467 9.77842 51.5946 9.72818L49.1508 8.92095C49.0106 8.87473 48.9336 8.724 48.9861 8.58625C49.1919 8.04477 49.4881 7.54763 49.8748 7.09487C50.3376 6.55609 50.946 6.12675 51.7001 5.80687C52.471 5.47012 53.4052 5.30176 54.5021 5.30176C56.1814 5.30176 57.5099 5.71425 58.4866 6.53925C59.4633 7.36424 59.9519 8.55963 59.9519 10.1254V14.7976C59.9519 15.3027 60.192 15.5552 60.6716 15.5552H61.4315C61.58 15.5552 61.6999 15.6754 61.6999 15.8236V17.9134C61.6999 18.0616 61.58 18.1818 61.4315 18.1818H59.5406C58.9064 18.1818 58.3839 18.0302 57.9723 17.7272C57.5611 17.4241 57.3556 17.02 57.3556 16.5149V16.4897H56.8671C56.7984 16.6917 56.6442 16.9611 56.4043 17.2979C56.1645 17.6177 55.7873 17.9039 55.2734 18.1565C54.7591 18.4091 54.0565 18.5353 53.1653 18.5353ZM53.7308 15.9593C54.6392 15.9593 55.3761 15.7152 55.9416 15.2269C56.5243 14.7219 56.8156 14.0568 56.8156 13.2318V12.9792H53.5508C52.951 12.9792 52.4796 13.1055 52.1371 13.3581C51.7942 13.6106 51.6228 13.9642 51.6228 14.4188C51.6228 14.8734 51.8028 15.2438 52.1625 15.53C52.5226 15.8162 53.0454 15.9593 53.7308 15.9593Z" fill="#02061E"/>
<path d="M65.3736 23.2332C65.2252 23.2332 65.1053 23.113 65.1053 22.9648V20.7235C65.1053 20.5752 65.2252 20.4551 65.3736 20.4551H72.0461C72.526 20.4551 72.7658 20.2026 72.7658 19.6975V16.5406H72.303C72.166 16.8268 71.9519 17.113 71.6606 17.3993C71.3692 17.6855 70.9749 17.9212 70.4781 18.1064C69.981 18.2916 69.3468 18.3842 68.5755 18.3842C67.5816 18.3842 66.7076 18.1653 65.9535 17.7276C65.2166 17.273 64.6425 16.65 64.231 15.8587C63.8197 15.0674 63.6143 14.1582 63.6143 13.1312V5.9241C63.6143 5.77588 63.7342 5.65576 63.8826 5.65576H66.5849C66.7331 5.65576 66.8533 5.77588 66.8533 5.9241V12.8787C66.8533 13.8215 67.0845 14.5286 67.5473 15C68.0272 15.4715 68.704 15.7072 69.5783 15.7072C70.5722 15.7072 71.3435 15.3873 71.8918 14.7475C72.4401 14.0909 72.7146 13.1817 72.7146 12.02V5.9241C72.7146 5.77588 72.8345 5.65576 72.9829 5.65576H75.6853C75.8334 5.65576 75.9536 5.77588 75.9536 5.9241V20.4046C75.9536 21.2633 75.6966 21.9452 75.1823 22.4503C74.6681 22.9722 73.9827 23.2332 73.1258 23.2332H65.3736Z" fill="#02061E"/>
<path d="M85.5473 18.5363C84.3132 18.5363 83.1908 18.2837 82.1798 17.7787C81.1855 17.2736 80.3974 16.5412 79.8147 15.5815C79.2318 14.6218 78.9404 13.4601 78.9404 12.0963V11.7427C78.9404 10.379 79.2318 9.21724 79.8147 8.25756C80.3974 7.29788 81.1855 6.5655 82.1798 6.06039C83.1908 5.55527 84.3132 5.30273 85.5473 5.30273C86.7641 5.30273 87.8095 5.5132 88.6835 5.9341C89.5575 6.35503 90.2601 6.93589 90.7916 7.6767C91.2887 8.33309 91.6309 9.0725 91.8183 9.89498C91.8508 10.0371 91.7573 10.1755 91.6147 10.2054L89.0172 10.7492C88.8648 10.7811 88.7182 10.6767 88.6863 10.5243C88.6044 10.1313 88.4664 9.77139 88.2723 9.44454C88.0322 9.04045 87.6896 8.72056 87.2441 8.48486C86.8156 8.24916 86.2756 8.13127 85.6245 8.13127C84.9732 8.13127 84.3819 8.2744 83.8505 8.56061C83.3365 8.83001 82.9253 9.24251 82.6168 9.7981C82.3254 10.3369 82.1798 11.0019 82.1798 11.7932V12.0458C82.1798 12.8371 82.3254 13.5106 82.6168 14.0662C82.9253 14.605 83.3365 15.0175 83.8505 15.3037C84.3819 15.5731 84.9732 15.7078 85.6245 15.7078C86.6013 15.7078 87.3382 15.4636 87.8353 14.9754C88.2886 14.5299 88.5955 13.9665 88.7556 13.2852C88.7912 13.1346 88.9393 13.0352 89.0899 13.0704L91.683 13.6759C91.829 13.71 91.9192 13.8571 91.8772 14.0009C91.6475 14.7913 91.2856 15.5202 90.7916 16.1876C90.2601 16.9116 89.5575 17.484 88.6835 17.9049C87.8095 18.3259 86.7641 18.5363 85.5473 18.5363Z" fill="#02061E"/>
<path d="M94.8885 18.1824C94.7403 18.1824 94.6201 18.0623 94.6201 17.9141V5.92434C94.6201 5.77613 94.7403 5.65601 94.8885 5.65601H97.5396C97.6877 5.65601 97.8079 5.77613 97.8079 5.92434V7.07026H98.2704C98.459 6.56518 98.7675 6.19476 99.1959 5.95906C99.6415 5.72335 100.156 5.60547 100.738 5.60547H102.012C102.161 5.60547 102.281 5.72562 102.281 5.8738V8.16571C102.281 8.31389 102.161 8.43404 102.012 8.43404H100.687C99.8644 8.43404 99.1873 8.65291 98.6562 9.09067C98.1247 9.51157 97.8591 10.1682 97.8591 11.0605V17.9141C97.8591 18.0623 97.7389 18.1824 97.5908 18.1824H94.8885Z" fill="#02061E"/>
<path d="M110.171 18.5363C108.903 18.5363 107.781 18.2753 106.804 17.7534C105.844 17.2146 105.09 16.4654 104.541 15.5057C104.01 14.5292 103.745 13.3843 103.745 12.0711V11.768C103.745 10.4547 104.01 9.31826 104.541 8.35858C105.073 7.38206 105.818 6.63284 106.778 6.11089C107.738 5.57211 108.852 5.30273 110.12 5.30273C111.371 5.30273 112.459 5.58054 113.385 6.13616C114.31 6.67491 115.03 7.43256 115.544 8.40908C116.058 9.36877 116.315 10.4884 116.315 11.768V12.5856C116.315 12.7338 116.195 12.8539 116.047 12.8539H107.035C107.069 13.7126 107.395 14.4113 108.012 14.9501C108.629 15.4889 109.383 15.7583 110.274 15.7583C111.183 15.7583 111.851 15.5647 112.279 15.1774C112.632 14.8587 112.915 14.5115 113.128 14.1357C113.203 14.0038 113.368 13.947 113.503 14.0165L115.659 15.1271C115.793 15.1962 115.844 15.3625 115.765 15.4909C115.535 15.8631 115.231 16.2637 114.85 16.6927C114.404 17.1978 113.805 17.6355 113.05 18.0059C112.296 18.3595 111.337 18.5363 110.171 18.5363ZM107.061 10.48H113.025C112.956 9.75602 112.656 9.17517 112.125 8.7374C111.611 8.29966 110.934 8.08077 110.094 8.08077C109.22 8.08077 108.526 8.29966 108.012 8.7374C107.498 9.17517 107.181 9.75602 107.061 10.48Z" fill="#02061E"/>
<path d="M124.494 18.5353C122.831 18.5353 121.469 18.1818 120.406 17.4746C119.41 16.8118 118.783 15.8826 118.525 14.687C118.496 14.5504 118.583 14.4175 118.718 14.3831L121.188 13.7557C121.336 13.718 121.485 13.8124 121.524 13.9606C121.646 14.4212 121.822 14.7928 122.052 15.0754C122.343 15.4121 122.694 15.6563 123.106 15.8078C123.534 15.9425 123.997 16.0099 124.494 16.0099C125.248 16.0099 125.805 15.8836 126.165 15.631C126.525 15.3616 126.705 15.0333 126.705 14.6461C126.705 14.2588 126.533 13.9642 126.191 13.7621C125.848 13.5433 125.3 13.3665 124.545 13.2318L123.825 13.1055C122.934 12.9372 122.12 12.7099 121.383 12.4236C120.646 12.1206 120.055 11.7081 119.61 11.1861C119.164 10.6642 118.941 9.99075 118.941 9.16576C118.941 7.91986 119.404 6.96858 120.329 6.31195C121.255 5.63851 122.472 5.30176 123.98 5.30176C125.402 5.30176 126.585 5.61324 127.527 6.2362C128.39 6.80645 128.98 7.53892 129.297 8.43365C129.346 8.57208 129.265 8.72008 129.125 8.76258L126.649 9.51079C126.499 9.55618 126.344 9.46298 126.297 9.31317C126.143 8.81993 125.885 8.45932 125.522 8.23134C125.111 7.96194 124.597 7.82725 123.98 7.82725C123.363 7.82725 122.892 7.9367 122.566 8.15557C122.24 8.3576 122.077 8.64384 122.077 9.01423C122.077 9.4183 122.249 9.72138 122.592 9.92341C122.934 10.1086 123.397 10.2517 123.98 10.3527L124.7 10.479C125.659 10.6474 126.525 10.8747 127.296 11.1609C128.084 11.4303 128.701 11.8259 129.147 12.3479C129.61 12.853 129.841 13.5433 129.841 14.4188C129.841 15.732 129.352 16.7506 128.376 17.4746C127.416 18.1818 126.122 18.5353 124.494 18.5353Z" fill="#02061E"/>
<path d="M137.312 18.1823C136.472 18.1823 135.787 17.9297 135.256 17.4246C134.742 16.9027 134.484 16.2124 134.484 15.3537V8.28238H131.565C131.417 8.28238 131.297 8.16223 131.297 8.01405V5.9242C131.297 5.77599 131.417 5.65587 131.565 5.65587H134.484V2.03493C134.484 1.88675 134.605 1.7666 134.753 1.7666H137.455C137.603 1.7666 137.724 1.88675 137.724 2.03493V5.65587H140.951C141.099 5.65587 141.22 5.77599 141.22 5.9242V8.01405C141.22 8.16223 141.099 8.28238 140.951 8.28238H137.724V14.7981C137.724 15.3032 137.963 15.5558 138.443 15.5558H140.643C140.791 15.5558 140.911 15.6759 140.911 15.8241V17.914C140.911 18.0622 140.791 18.1823 140.643 18.1823H137.312Z" fill="#02061E"/>
</svg>
